<svg xmlns="http://www.w3.org/2000/svg" version="1.1" xmlns:xlink="http://www.w3.org/1999/xlink" xmlns:svgjs="http://svgjs.dev/svgjs" viewBox="0 0 800 800"><defs><radialGradient id="ccclaymoji-grad-dark" r="93%" cx="20%" cy="20%">
      <stop offset="70%" stop-color="hsl(265, 100%, 81%)" stop-opacity="0"></stop>
      <stop offset="97%" stop-color="#946fcb" stop-opacity="1"></stop>
    </radialGradient><radialGradient id="ccclaymoji-grad-light" r="65%" cx="28%" cy="20%">
    <stop offset="0%" stop-color="#facfff" stop-opacity="0.75"></stop>
    <stop offset="100%" stop-color="hsl(265, 100%, 81%)" stop-opacity="0"></stop>
  </radialGradient><filter id="ccclaymoji-blur" x="-100%" y="-100%" width="400%" height="400%" filterUnits="objectBoundingBox" primitiveUnits="userSpaceOnUse" color-interpolation-filters="sRGB">
	<feGaussianBlur stdDeviation="30" x="0%" y="0%" width="100%" height="100%" in="SourceGraphic" edgeMode="none" result="blur"></feGaussianBlur></filter><filter id="inner-blur" x="-100%" y="-100%" width="400%" height="400%" filterUnits="objectBoundingBox" primitiveUnits="userSpaceOnUse" color-interpolation-filters="sRGB">
	<feGaussianBlur stdDeviation="2" x="0%" y="0%" width="100%" height="100%" in="SourceGraphic" edgeMode="none" result="blur"></feGaussianBlur></filter><filter id="eye-shadow" x="-100%" y="-100%" width="400%" height="400%" filterUnits="objectBoundingBox" primitiveUnits="userSpaceOnUse" color-interpolation-filters="sRGB">
	<feDropShadow stdDeviation="10" dx="10" dy="10" flood-color="#000000" flood-opacity="0.2" x="0%" y="0%" width="100%" height="100%" result="dropShadow"></feDropShadow>
</filter><linearGradient id="eye-light" x1="50%" y1="0%" x2="50%" y2="100%">
      <stop offset="0%" stop-color="#555555" stop-opacity="1"></stop>
      <stop offset="100%" stop-color="black" stop-opacity="0"></stop>
    </linearGradient><linearGradient id="mouth-light" x1="50%" y1="0%" x2="50%" y2="100%">
    <stop offset="0%" stop-color="#555555" stop-opacity="1"></stop>
    <stop offset="100%" stop-color="hsla(0, 0%, 0%, 1.00)" stop-opacity="0"></stop>
  </linearGradient><filter id="mouth-shadow" x="-100%" y="-100%" width="400%" height="400%" filterUnits="objectBoundingBox" primitiveUnits="userSpaceOnUse" color-interpolation-filters="sRGB">
	<feDropShadow stdDeviation="10" dx="10" dy="10" flood-color="#000000" flood-opacity="0.2" x="0%" y="0%" width="100%" height="100%" result="dropShadow"></feDropShadow>
</filter></defs><g stroke-linecap="round" transform="rotate(2, 400, 400)"><path d="M668 450.00001176284013C668 613.9712247008456 563.9712129380055 746.8948904690396 400 746.8948904690396C236.02950943396226 746.8948904690396 132 613.9712247008456 132 450.00001176284013C132 286.02952119680236 236.02950943396226 153.10513305664062 400 153.10513305664062C563.9712129380055 153.10513305664062 668 286.02952119680236 668 450.00001176284013Z " fill="#946fcb" opacity="0.25" filter="url(#ccclaymoji-blur)"></path><path d="M668 400.00001176284013C668 563.9712247008456 563.9712129380055 696.8948904690396 400 696.8948904690396C236.02950943396226 696.8948904690396 132 563.9712247008456 132 400.00001176284013C132 236.02952119680236 236.02950943396226 103.10513305664062 400 103.10513305664062C563.9712129380055 103.10513305664062 668 236.02952119680236 668 400.00001176284013Z " fill="hsl(265, 100%, 81%)"></path><path d="M668 400.00001176284013C668 563.9712247008456 563.9712129380055 696.8948904690396 400 696.8948904690396C236.02950943396226 696.8948904690396 132 563.9712247008456 132 400.00001176284013C132 236.02952119680236 236.02950943396226 103.10513305664062 400 103.10513305664062C563.9712129380055 103.10513305664062 668 236.02952119680236 668 400.00001176284013Z " fill="url(#ccclaymoji-grad-dark)"></path><path d="M668 400.00001176284013C668 563.9712247008456 563.9712129380055 696.8948904690396 400 696.8948904690396C236.02950943396226 696.8948904690396 132 563.9712247008456 132 400.00001176284013C132 236.02952119680236 236.02950943396226 103.10513305664062 400 103.10513305664062C563.9712129380055 103.10513305664062 668 236.02952119680236 668 400.00001176284013Z " fill="url(#ccclaymoji-grad-light)"></path><path d="M319.5 389Q369.5 333 380.5 389 " stroke-width="20" stroke="black" fill="none" filter="url(#eye-shadow)"></path><path d="M319.5 389Q369.5 333 380.5 389 " stroke-width="6.666666666666667" stroke="url(#eye-light)" fill="none" filter="url(#inner-blur)"></path><path d="M425 389.5Q475 331.5 475 389.5 " stroke-width="20" stroke="black" fill="none" filter="url(#eye-shadow)"></path><path d="M425 389.5Q475 331.5 475 389.5 " stroke-width="6.666666666666667" stroke="url(#eye-light)" fill="none" filter="url(#inner-blur)"></path><path d="M350 512.5Q400 562.5 450 512.5 " stroke-width="20" stroke="hsla(0, 0%, 0%, 1.00)" fill="none" filter="url(#mouth-shadow)"></path><path d="M350 512.5Q400 562.5 450 512.5 " stroke-width="6.666666666666667" stroke="url(#mouth-light)" fill="none" filter="url(#inner-blur)"></path></g></svg>